<svg width="16" height="14" viewBox="0 0 16 14" fill="none" xmlns="http://www.w3.org/2000/svg">
<path d="M6.33334 6H9.66668M2.30934 10.2187C1.33334 9.438 1.33334 8.84733 1.33334 6.33333C1.33334 3.81933 1.33334 2.562 2.30934 1.78133C3.28668 1 4.85734 1 8.00001 1C11.1427 1 12.714 1 13.69 1.78133C14.6667 2.562 14.6667 3.81933 14.6667 6.33333C14.6667 8.84733 14.6667 9.438 13.69 10.2187C12.7147 11 11.1427 11 8.00001 11C6.32668 11 5.46668 12.1587 4.00001 13V10.8587C3.27068 10.75 2.73401 10.5587 2.30934 10.2187Z" stroke="black" stroke-width="0.8" stroke-linecap="round" stroke-linejoin="round"/>
</svg>
