<?xml version="1.0" encoding="UTF-8"?>
<svg width="140px" height="104px" viewBox="0 0 140 104" version="1.1" xmlns="http://www.w3.org/2000/svg" xmlns:xlink="http://www.w3.org/1999/xlink">
    <!-- Generator: Sketch 64 (93537) - https://sketch.com -->
    <title>Group 3</title>
    <desc>Created with Sketch.</desc>
    <defs>
        <polygon id="path-1" points="0.147 0.8369 75.0311441 0.8369 75.0311441 98.672 0.147 98.672"></polygon>
        <polygon id="path-3" points="0.147 0.817425805 42.3555 0.817425805 42.3555 23.672 0.147 23.672"></polygon>
        <polygon id="path-5" points="0.7997 0.461239971 38.4767814 0.461239971 38.4767814 28.672 0.7997 28.672"></polygon>
        <polygon id="path-7" points="0.2087 0.375146541 60.4748984 0.375146541 60.4748984 26.672 0.2087 26.672"></polygon>
    </defs>
    <g id="Desktop" stroke="none" stroke-width="1" fill="none" fill-rule="evenodd">
        <g id="05-Article---Scorecard-Modules---Desktop" transform="translate(-431.000000, -1005.000000)">
            <g id="Group-3" transform="translate(431.000000, 1005.000000)">
                <rect id="Rectangle" fill="#D8D8D8" x="0" y="0" width="140" height="104"></rect>
                <g id="Group-79" transform="translate(0.000000, 5.000000)">
                    <path d="M108.8219,79.6817 L108.2069,78.5597 C108.0159,78.1777 107.8129,77.7677 108.1019,76.8937 C107.7809,76.6907 107.5099,76.4177 107.3069,76.0827 C106.4799,74.7147 107.1589,73.0437 107.8419,71.7417 C108.6899,70.1207 110.6179,68.2467 112.9659,66.3327 C110.4719,65.9527 107.9579,64.5547 105.0079,61.9407 C102.1389,59.3987 100.2599,56.8977 99.4249,54.5047 C98.3289,51.3727 98.9639,48.3507 101.2569,45.7637 C103.8849,42.7997 109.2589,41.4507 113.1409,41.4507 C115.1089,41.4507 116.8939,41.7687 118.3019,42.3707 C121.0169,43.5327 129.7619,48.2257 128.3839,59.8727 C127.5299,67.0697 122.3299,70.2707 118.8889,72.3877 C117.7449,73.0917 116.4479,73.8907 116.1719,74.3807 C114.3719,77.5717 111.7039,79.5787 110.1649,79.6777 L110.0279,79.6827 L108.8219,79.6817 Z" id="Fill-1" fill="#939597"></path>
                    <g id="Group-5" transform="translate(0.000000, 0.328000)">
                        <mask id="mask-2" fill="white">
                            <use xlink:href="#path-1"></use>
                        </mask>
                        <g id="Clip-4"></g>
                        <path d="M-0.6073,44.5129 C2.1157,43.1459 4.4817,41.3739 6.9877,39.4979 C9.4337,37.6679 11.9607,35.7769 14.8607,34.2779 C16.9137,33.2329 19.4517,32.1629 22.8277,32.0699 C23.4367,31.9489 24.0597,31.9359 24.6167,31.9249 C25.0207,31.9169 26.4547,31.5509 26.4547,31.5509 C29.6937,30.8029 32.2777,30.0859 33.6207,28.2639 C35.6647,25.7229 35.5937,24.0719 35.4767,21.3339 C35.3907,19.3209 35.2827,16.8139 36.1037,13.5629 C36.5467,11.8689 38.0127,9.6139 39.9837,7.2489 C40.7947,6.2769 41.0867,5.8789 41.9057,5.0239 C43.7007,3.1459 48.7307,0.8369 54.4407,0.8369 C56.3447,0.8369 58.3717,1.0659 60.6397,1.5349 L60.7397,1.5559 L60.8347,1.5869 C64.1577,2.6439 66.9067,4.4909 69.2337,7.2279 C71.0327,8.6929 72.0897,10.6579 73.0087,12.5629 L73.0697,12.6589 C73.3757,13.1249 74.7547,14.7459 75.0027,19.7039 C75.1907,23.4699 74.4257,30.1309 73.3307,31.2269 C72.7147,31.8429 71.6617,32.2019 71.6077,32.6439 C71.6077,32.6439 72.8327,36.8209 72.9627,37.9269 C73.0237,38.4409 71.9807,38.5999 71.1437,38.8399 C70.7087,38.9649 69.0217,39.3099 68.8987,39.3099 C68.2467,39.3099 67.5437,43.3399 66.8157,43.5629 C66.4287,45.1679 65.3077,50.0629 60.8897,50.0629 C60.6847,50.0629 60.4727,50.0569 60.2527,50.0439 L60.0917,50.0349 L59.9327,49.9989 C59.4857,49.8979 58.5397,49.6819 58.0307,49.0089 C57.3347,48.7029 56.4107,48.5229 55.4897,48.5229 C53.9807,48.5229 52.9737,48.9739 52.6757,49.3929 L52.5057,49.6329 L48.4397,52.7499 L48.0067,53.2869 C46.8687,54.7009 45.6917,56.1619 44.0727,57.2809 L39.9117,63.5699 L36.0897,69.9559 C35.5107,70.9239 34.7887,71.6549 34.1507,72.2999 C33.7947,72.6589 33.4587,72.9989 33.1757,73.3499 L32.5797,74.0859 L32.5637,74.0859 C32.4317,74.2999 32.2867,74.4759 32.1347,74.6209 C32.1437,75.2409 32.3177,75.7009 32.5827,76.1829 L34.0227,78.8009 L31.0467,79.0639 C27.7027,79.3579 26.6177,79.9639 25.1157,80.8029 C24.2017,81.3149 23.1667,81.8929 21.5787,82.4499 C21.5787,82.4499 20.2947,82.4229 20.8787,82.4309 C19.8247,82.4309 13.9777,83.3649 12.0957,84.5069 C10.8137,85.2849 9.5747,85.9379 8.4807,86.5129 C7.2977,87.1359 6.2757,87.6729 5.5337,88.1919 L4.2517,89.0849 L3.9547,88.8119 C3.8137,89.8309 3.7997,90.9309 3.9137,92.1009 L3.9367,92.3519 L3.9157,92.4859 C3.9277,92.5019 3.9387,92.5209 3.9497,92.5379 C4.2357,92.9929 4.7687,93.8389 4.5507,95.1769 L4.3197,96.5969 L3.5207,104.324004 C3.3977,104.3419 1.6667,102.0159 1.0227,100.9529 C0.2197,99.6279 -2.0583,95.9349 -3.1463,93.8139 C-4.1143,91.9269 -5.3563,87.7859 -5.3563,87.7859 C-7.0183,82.4459 -6.4563,76.5999 -5.8853,72.2159 C-5.4683,69.0169 -5.0743,65.9959 -6.0643,64.0819 C-10.8613,54.8019 -5.7023,48.0489 -1.8233,45.3819" id="Fill-3" fill="#939597" mask="url(#mask-2)"></path>
                    </g>
                    <path d="M5.2823,95.5958 C5.8583,95.1288 6.5263,94.8188 7.2673,94.6708 L8.7843,98.1638 C8.2373,98.5568 7.6283,98.8388 6.9763,98.9998 L5.2823,95.5958 Z" id="Fill-6" fill="#666667"></path>
                    <path d="M7.648,96.5821 C7.236,96.6631 6.85,96.8331 6.506,97.1091 C6.926,97.0061 7.313,96.8221 7.648,96.5821" id="Fill-8" fill="#666667"></path>
                    <path d="M103.1988,67.5499 C105.5078,69.0869 106.6248,71.6539 109.5668,72.6459 C109.6728,73.2539 111.5978,74.2319 112.0508,73.2469 C112.7438,74.5249 109.9398,75.6369 110.0398,77.7349 C108.2728,77.8209 107.2178,77.2939 106.3298,76.6219 C105.9958,76.5179 105.9428,76.1709 105.5218,76.1419 C104.2968,75.1069 103.2618,73.9079 102.4138,72.5459 C102.2558,72.1599 102.1008,71.7709 101.6368,71.6479 C102.3998,70.6539 103.7568,68.6389 103.1988,67.5499" id="Fill-10" fill="#939597"></path>
                    <path d="M97.5484,94.1378 C96.0984,94.1378 94.6874,93.9578 93.3574,93.6028 L92.5004,93.3248 C90.9124,92.8048 89.1364,92.2268 87.8784,90.9518 C86.1764,90.3808 84.7384,89.6258 83.3454,88.8958 C82.7744,88.5958 82.2024,88.2968 81.6134,88.0108 C81.3484,87.8728 81.1584,87.7648 80.9784,87.6558 L80.8724,87.5918 C80.6934,87.4818 80.5134,87.3628 80.3494,87.2438 L80.1044,87.0698 L80.0884,87.0478 C79.8934,86.8958 79.7124,86.7388 79.5494,86.5758 C77.7234,85.3908 75.6794,84.3488 73.5214,83.2488 C67.0324,79.9418 59.6784,76.1918 58.7324,67.6168 L58.5554,66.0178 L66.9944,63.4038 C67.0074,63.2948 67.0644,62.8938 67.0644,62.8938 L67.1364,62.6978 C67.2264,62.2418 67.3774,61.8848 67.5614,61.6058 L67.7614,58.8698 L69.6424,58.9438 C69.8304,58.9498 70.0074,58.9538 70.1734,58.9538 C70.2854,58.9538 70.3874,58.9518 70.4814,58.9498 C70.4524,58.8248 70.4234,58.6978 70.3944,58.5698 L71.4944,58.1408 L73.1174,54.2828 L73.9714,57.1758 L73.9844,57.1698 C74.4374,57.9598 74.8984,58.9478 74.8034,59.9798 C75.5454,62.3218 76.2794,63.3548 76.6304,63.6768 C76.9344,63.4128 77.7124,62.5208 78.7214,59.7578 L81.1974,52.9738 L82.4694,60.0828 C82.5524,60.5468 82.6304,60.8188 82.6864,60.9698 C82.7334,60.9718 82.7914,60.9728 82.8614,60.9728 C83.0954,60.9728 83.3544,60.9608 83.6424,60.9488 C84.0454,60.9298 84.4954,60.9088 85.0004,60.9078 L85.1424,60.9118 C85.8134,60.9578 86.2834,61.2378 86.5754,61.4708 C88.5594,61.7418 88.9404,62.9888 88.9864,63.7218 L89.1034,65.5428 L87.2924,65.7788 C84.6294,66.1248 84.5584,67.0198 84.4884,67.8858 L84.4074,68.9258 C85.6464,70.2378 89.0304,72.3988 91.5274,72.3988 C91.7654,72.3988 91.9444,72.3738 92.0774,72.3428 C92.1634,72.2528 92.2404,72.1518 92.3204,72.0538 L92.5974,71.7278 C92.6414,71.6788 92.6864,71.6298 92.7324,71.5818 C92.7874,71.5218 92.8864,71.4228 92.9864,71.3288 C93.0394,71.2828 93.0884,71.2408 93.1364,71.2008 L93.1814,71.1148 C93.2664,70.9608 93.3544,70.8298 93.4504,70.7138 C93.4234,70.4168 93.4544,70.1098 93.5444,69.8018 L94.0514,68.0788 L95.8104,68.4448 C95.8654,68.4548 95.9314,68.4588 95.9944,68.4658 C96.6564,68.5338 97.1524,68.7048 97.5234,68.9308 C99.2834,69.0158 100.7094,69.3898 101.9844,69.7238 L102.1304,69.7628 C103.4064,70.1008 103.9154,71.0968 104.1504,71.6468 C104.8014,72.6658 105.5824,73.5868 106.4794,74.3928 C106.8054,74.5298 107.0444,74.7118 107.2064,74.8548 L107.2344,74.8638 L107.5054,75.0688 C108.0974,75.5168 108.6654,75.7948 109.6624,75.7948 C109.7534,75.7948 109.8474,75.7918 109.9434,75.7878 L112.6544,75.6538 L111.9134,78.2648 C111.8564,78.4688 111.8614,79.0648 111.8654,79.4588 C111.8744,80.3908 111.8864,81.6588 111.2904,82.6268 C111.1894,84.1718 110.3564,85.6698 109.6084,86.8888 L109.5444,88.2258 L110.1004,88.4618 L108.9494,89.8818 C106.3694,92.4678 101.8944,94.1378 97.5484,94.1378" id="Fill-12" fill="#939597"></path>
                    <path d="M76.2574,74.211 C75.3844,74.211 74.6934,73.856 74.0244,73.512 C73.3444,73.163 72.6434,72.803 71.5584,72.682 L68.4354,72.331 L70.0814,69.775 C70.5604,68.418 70.3324,63.62 69.4204,62.834 L68.0114,62.779 L67.7614,61.722 C67.4004,61.476 66.6564,61.104 66.1824,60.865 C65.2864,60.416 64.4144,59.979 63.7344,59.447 C63.3944,59.647 63.0294,59.866 62.7334,60.046 C62.0774,60.441 61.4004,60.852 60.8574,61.136 L58.8984,57.772 C58.8324,57.814 58.7904,57.876 58.7804,57.9 C59.4324,56.383 55.7024,49.55 54.2674,47.929 C53.4874,47.351 53.1584,46.419 53.4284,45.516 C54.2914,42.614 61.6264,42.581 61.7004,42.581 C63.9524,42.581 65.3774,42.027 66.5194,42.897 L67.2594,44.229 L67.4574,44.75 C67.5894,45.094 67.9704,45.441 68.4134,45.843 C68.4804,45.903 68.5494,45.966 68.6194,46.03 C69.0744,45.972 69.5554,45.943 70.0584,45.943 C72.0724,45.943 74.9084,46.461 76.5614,47.898 C82.1614,50.671 84.6264,56.037 86.4964,60.864 L86.7894,61.566 L86.6184,61.77 C86.6314,61.78 86.6724,61.841 86.7084,61.905 L88.3224,64.792 L85.1054,64.804 C84.4274,65.146 83.2184,67.307 82.6954,68.24 C81.7734,69.888 81.1264,71.042 79.9634,71.292 C78.9844,72.991 77.8934,74.211 76.2574,74.211" id="Fill-14" fill="#939597"></path>
                    <path d="M84.6803,61.5684 C82.7433,56.5684 80.4493,51.8764 75.4483,49.5244 C74.0823,48.1184 70.2793,47.5104 67.9673,48.1374 C67.1963,47.2334 66.0853,46.6244 65.6363,45.4414 C62.8773,43.3414 53.9323,45.3884 55.4593,46.3844 C55.9833,46.5284 63.1443,57.3564 59.9533,59.4104 C61.4673,58.6164 64.4193,56.5794 64.3643,57.1424 C64.5243,58.4424 69.2843,59.6944 69.5673,60.8894 C72.7973,61.0154 72.5503,69.5424 71.7753,70.7454 C76.2083,71.2414 76.0703,74.8694 79.1043,68.7444 C79.6583,71.8404 82.1083,62.8674 85.0083,62.8564 C84.8113,62.5034 84.6203,62.1434 84.6803,61.5684" id="Fill-16" fill="#E5E6E7"></path>
                    <path d="M58.7935,61.6661 L58.3865,61.5131 L51.8595,58.8491 L58.8285,57.7831 L60.3225,61.3951 C60.0285,61.5201 59.6325,61.6661 59.1765,61.6661 L58.7935,61.6661 Z" id="Fill-18" fill="#333333"></path>
                    <path d="M59.5523,59.6055 C59.4213,59.6495 59.2783,59.6855 59.1233,59.7095 C59.1933,59.7375 59.3463,59.6935 59.5523,59.6055" id="Fill-20" fill="#989898"></path>
                    <path d="M71.775,70.7452 C71.647,70.7302 71.515,70.7182 71.379,70.7092 C71.517,70.9492 71.652,70.9352 71.775,70.7452" id="Fill-22" fill="#989898"></path>
                    <path d="M122.106,50.8135 C120.81,48.1385 118.959,45.9445 116.249,44.4905 C108.862,42.6275 99.867,45.2055 101.272,53.5095 C102.156,55.7535 103.425,57.6685 104.167,60.0385 C109.169,63.5975 109.767,62.9705 116.104,63.8555 C128.002,59.1375 119.602,64.9405 115.471,66.7575 C114.17,67.8925 116.141,67.2685 117.117,67.2975 C117.149,69.1525 115.105,68.6055 114.032,69.1795 C114.947,70.6665 111.25,72.1115 109.567,72.6455 C109.672,73.2535 111.598,74.2315 112.05,73.2475 C112.744,74.5245 109.94,75.6365 110.04,77.7345 C111.505,77.9155 111.52,76.4185 112.674,76.2405 C114.605,71.3575 120.013,70.4985 122.266,65.9885 C123.745,65.4265 123.784,63.2015 125.055,62.3995 C125.085,61.9805 125.116,61.5615 125.145,61.1425 L125.359,58.2095 C125.42,57.3735 125.481,56.5345 125.542,55.6965 C124.22,54.2225 123.986,51.8065 122.106,50.8135" id="Fill-24" fill="#BD3B26"></path>
                    <path d="M90.1324,78.003 C84.9644,78.003 76.7374,74.47 75.9114,71.172 C75.6974,70.316 75.9064,69.481 76.4514,68.856 C77.6564,65.706 83.3564,62.361 86.7904,61.914 L87.2484,61.855 L87.6844,62.007 C90.0764,62.843 91.5134,64.431 92.7784,65.831 C93.8354,67 94.7474,68.009 96.1124,68.534 L97.7894,69.179 L97.6984,69.49 L97.7494,70.812 C97.7284,75.315 94.8804,78.003 90.1324,78.003" id="Fill-26" fill="#939597"></path>
                    <path d="M87.0416,63.8468 C90.8146,65.1648 91.7456,68.9418 95.4136,70.3528 C95.3106,70.7028 95.5476,70.7598 95.8026,70.8018 C95.7466,82.1698 74.6476,71.8258 78.1746,69.9408 C78.3356,67.9028 83.7146,64.2798 87.0416,63.8468" id="Fill-28" fill="#E5E6E7"></path>
                    <path d="M55.7247,71.6768 C59.7227,70.3968 62.4597,67.6568 67.0147,67.0218 C66.4427,70.1468 64.7727,72.0008 63.1437,73.9008 C59.6827,74.0058 55.9487,73.3028 55.7247,71.6768" id="Fill-30" fill="#666667"></path>
                    <path d="M11.7618,91.2218 C11.4198,92.8258 12.3608,93.3238 11.9068,95.0238 C9.7198,90.4548 9.1798,90.5248 9.3318,95.6788 C10.5078,88.5778 -1.3552,93.9228 3.1468,88.0678 C4.3868,86.4548 7.5928,85.2918 11.0848,83.1698 C13.8778,81.4738 22.3698,80.4358 20.9348,80.9398 C24.9498,79.5328 25.0388,77.9638 30.8758,77.4498 C31.8048,79.9968 32.6668,84.5218 36.0478,81.6168 C38.3388,84.7648 28.1798,93.8938 25.1468,86.7208 C26.6988,86.5558 26.6878,87.7438 28.0188,87.7718 C29.6668,80.7458 29.9148,82.7658 21.6808,82.2558 C14.6028,81.8188 7.7088,90.3548 11.7618,91.2218" id="Fill-32" fill="#FEFEFE"></path>
                    <path d="M107.1412,90.1153 C106.2962,90.1153 105.5602,89.6993 105.1742,89.0033 C104.4792,87.7523 105.1892,86.6133 106.0102,85.2953 C106.4612,84.5733 107.5152,82.8823 107.3992,82.2423 L107.1392,80.8193 L107.9582,80.3993 C107.9752,80.1333 107.9712,79.7663 107.9692,79.4963 C107.9612,78.7323 107.9542,77.9453 108.1642,77.2023 L108.6212,75.5943 L110.0672,75.7733 C110.0822,75.7543 110.0992,75.7333 110.1162,75.7153 C110.4812,75.2913 111.1602,74.5033 112.3772,74.3153 L115.1132,73.8933 L114.5872,76.6113 C113.6572,81.4233 112.6032,86.8763 108.7422,89.6663 L108.4602,89.8683 L108.1262,89.9633 C107.7612,90.0653 107.4392,90.1153 107.1412,90.1153" id="Fill-34" fill="#939597"></path>
                    <path d="M110.0396,77.7344 C111.4456,77.1534 111.8336,75.7194 112.9876,75.5424 C112.0546,80.3674 110.7426,85.8154 107.6016,88.0874 C105.7936,88.4974 110.9336,80.1714 110.0396,77.7344" id="Fill-36" fill="#FEFEFE"></path>
                    <path d="M60.6685,67.4034 C61.7865,77.5394 73.1675,80.0314 80.7935,85.0624 C80.9755,85.2594 81.2025,85.4584 81.4795,85.6554 C81.4805,85.6594 81.4815,85.6594 81.4825,85.6604 C81.6115,85.7534 81.7525,85.8444 81.9025,85.9374 C81.9285,85.9524 81.9545,85.9684 81.9805,85.9864 C82.1325,86.0764 82.2895,86.1674 82.4625,86.2574 C84.5985,87.2914 86.5145,88.5144 88.9835,89.2594 C90.0085,90.5974 92.0105,91.0934 93.8585,91.7204 C98.9665,93.0834 104.7645,91.3174 107.5705,88.5064 C107.5805,88.3654 107.5915,88.2254 107.6015,88.0874 C105.0645,88.7984 109.6845,78.9894 110.0395,77.7344 C108.2725,77.8214 107.2175,77.2944 106.3295,76.6224 C105.9955,76.5174 105.9425,76.1714 105.5225,76.1414 C104.2965,75.1064 103.2625,73.9084 102.4135,72.5464 C102.2555,72.1604 102.1015,71.7704 101.6365,71.6474 C100.1265,71.2514 98.6335,70.8414 96.6405,70.8624 C96.6075,70.3664 95.9015,70.4534 95.4135,70.3524 C95.3105,70.7034 95.5475,70.7594 95.8025,70.8014 C95.6625,71.1504 94.9255,71.9854 94.9035,72.0234 C94.8985,72.0324 93.0185,74.0834 93.0185,74.0834 C85.6055,85.0694 75.8115,69.2174 78.5885,67.7314 C78.7505,65.6934 83.7145,64.2794 87.0415,63.8464 C87.0105,63.3504 86.3045,63.4374 85.8145,63.3364 C85.4815,63.2314 85.4275,62.8844 85.0085,62.8564 C82.1075,62.8674 81.1055,63.5234 80.5515,60.4254 C76.9575,70.2734 74.9195,62.1874 72.2935,58.1394 C72.2565,61.6664 73.3085,61.0354 69.5665,60.8894 C69.5255,61.4484 69.2235,64.4364 70.5795,64.3334" id="Fill-38" fill="#939597"></path>
                    <path d="M55.4688,20.376 C58.2148,26.255 66.6278,21.48 64.5558,23.542 C62.1708,25.919 57.6758,24.936 56.2898,29.177 C61.8438,25.67 71.7068,35.054 72.9658,25.757 C72.8128,22.617 73.0908,19.105 71.9298,16.836 C56.9448,11.222 55.4688,20.376 55.4688,20.376" id="Fill-40" fill="#E5E6E7"></path>
                    <path d="M41.5479,87.0714 C34.6559,84.6534 49.7679,82.0524 50.6819,83.1024 C53.1179,85.9024 46.7279,88.8894 41.5479,87.0714" id="Fill-42" fill="#E5E6E7"></path>
                    <path d="M29.3897,92.0841 C33.4507,90.1521 39.9897,82.2941 34.9587,90.8041 C33.2227,92.4301 32.3657,95.0721 30.3427,96.3651 C28.4517,98.3021 29.5847,94.8461 29.3587,92.5031 C29.3687,92.3621 29.3797,92.2231 29.3897,92.0841" id="Fill-44" fill="#666667"></path>
                    <g id="Group-48" transform="translate(0.000000, 75.328000)">
                        <mask id="mask-4" fill="white">
                            <use xlink:href="#path-3"></use>
                        </mask>
                        <g id="Clip-47"></g>
                        <path d="M42.3555,6.4328 C42.3555,6.4328 34.4805,26.3918 17.6705,28.7488 C17.6705,28.7488 -0.9695,39.3818 0.0465,15.4108 C0.4785,5.2438 0.9335,12.7658 5.1665,8.1358 C9.3985,3.5068 28.1905,-0.9932 36.7835,1.5568" id="Fill-46" fill="#939597" mask="url(#mask-4)"></path>
                    </g>
                    <path d="M47.6519,77.3126 C41.3799,77.3126 37.2149,67.5006 36.6289,66.0356 C34.5399,61.9156 37.8029,58.7296 41.2559,55.3576 C43.0979,53.5586 45.1859,51.5196 46.7009,49.1436 C48.6199,46.1336 51.0079,44.6086 53.7989,44.6086 C57.0689,44.6086 60.7029,46.7516 64.9129,51.1626 C73.4119,60.0636 71.4999,64.8996 71.2529,65.4206 C66.8449,74.6186 48.7079,77.1926 47.9379,77.2976 L47.8439,77.3106 L47.6519,77.3126 Z" id="Fill-49" fill="#939597"></path>
                    <path d="M40.9859,84.4044 C38.1129,84.3514 36.8969,82.6824 36.0209,81.4194 C35.8369,81.4494 35.6549,81.4644 35.4749,81.4644 C33.4219,81.4644 31.9559,79.6224 31.5719,76.6194 C31.0429,75.9254 30.8559,75.0954 30.6999,74.4004 C30.6209,74.0464 31.3329,72.8534 31.2189,72.7034 C31.2189,72.7034 34.8639,67.2044 35.4569,66.5534 C36.2639,65.6654 37.2699,64.5594 39.0599,64.2834 C39.0599,64.2834 41.1129,66.7584 41.1839,66.8904 C41.3369,66.8844 47.7339,71.8204 49.2799,75.5494 L49.7909,76.7804 L48.6639,77.4944 C46.9659,78.5674 45.8439,79.7424 45.1319,81.1884 L44.9869,81.4814 L44.7389,81.6944 C44.5099,81.8904 44.2779,82.1454 44.0329,82.4164 C43.4449,83.0624 42.7149,83.8704 41.5769,84.3004 L41.2919,84.4104 L40.9859,84.4044 Z" id="Fill-51" fill="#E5E6E7"></path>
                    <g id="Group-55" transform="translate(9.000000, 70.328000)">
                        <mask id="mask-6" fill="white">
                            <use xlink:href="#path-5"></use>
                        </mask>
                        <g id="Clip-54"></g>
                        <path d="M28.5797,14.9172 C13.6767,25.3512 8.4427,30.8592 0.7997,29.5262 C0.7997,29.5262 14.7557,38.4042 31.4987,11.8702 C48.7517,-15.4708 28.5797,14.9172 28.5797,14.9172" id="Fill-53" fill="#E5E6E7" mask="url(#mask-6)"></path>
                    </g>
                    <path d="M42.9195,68.2178 C42.7795,68.2068 42.6395,68.1968 42.5005,68.1878 C40.0655,69.1018 39.5965,67.7328 39.3015,65.8488 C36.9915,66.2048 32.5455,71.3568 31.6605,72.4528 C32.3785,73.4018 32.1495,75.1698 33.0925,75.9268 C33.2455,77.8648 34.1215,80.8508 36.5805,79.5718 C36.7205,79.7418 36.8595,79.9018 36.9945,80.0488 C37.9145,81.3368 38.6555,82.7778 41.0155,82.8218 C42.1975,82.3718 42.8075,81.2618 43.7115,80.4888 C44.6615,78.5608 46.1255,77.2268 47.8175,76.1548 C46.4175,72.7798 44.7035,70.3828 42.9195,68.2178" id="Fill-56" fill="#939597"></path>
                    <path d="M38.0714,65.379 C38.0714,65.379 42.1874,75.818 47.7244,75.729 C47.7244,75.729 65.7354,73.271 69.8214,64.746 C69.8214,64.746 71.7614,60.629 63.7674,52.255 C58.3164,46.544 52.3944,43.158 48.0364,49.995 C43.6774,56.829 35.4924,60.435 38.0714,65.379" id="Fill-58" fill="#BBBDBF"></path>
                    <path d="M31.5723,76.6192 C31.5723,76.6192 13.2453,72.2632 3.3133,90.6052 C3.3133,90.6052 7.8433,75.6222 30.6753,74.4132" id="Fill-60" fill="#E5E6E7"></path>
                    <path d="M30.3116,73.6182 C30.6936,73.0552 30.8646,72.0292 31.6606,72.0401123 C32.3786,72.9892 32.7396,76.9072 36.6196,79.5532 C40.4996,82.1982 40.9706,82.1592 40.9706,82.8342 C40.9256,83.3882 40.3756,83.3432 40.2396,83.7902 C36.7776,87.8212 31.8046,79.9972 30.8756,77.4492 C30.3386,76.4732 29.9706,75.3522 30.3116,73.6182" id="Fill-62" fill="#BBBDBF"></path>
                    <path d="M116.1041,63.8555 C109.7671,62.9705 113.6651,59.7125 108.6611,56.1535 C107.9191,53.7845 102.1561,55.7535 101.2721,53.5095 C97.9201,56.5585 100.9581,64.4495 103.1991,67.5495 C105.5071,69.0865 105.0411,72.4475 107.9841,73.4365 C109.6671,72.9025 114.9471,70.6665 114.0321,69.1795 C115.1051,68.6055 117.1491,69.1525 117.1171,67.2975 C116.1411,67.2685 132.3861,55.8345 116.1041,63.8555" id="Fill-64" fill="#939597"></path>
                    <path d="M102.7154,47.0557 C98.7854,51.4877 101.5794,56.2987 106.2984,60.4827 C113.0304,66.4477 116.2814,64.6757 121.4414,62.0847 C124.7194,60.4387 119.9944,63.3197 115.5054,66.8017 C112.9304,68.7987 110.4324,70.9937 109.5674,72.6457 C107.1924,77.1767 111.6814,74.7047 111.8134,74.5107 C111.9444,74.3157 109.8804,77.8247 110.0394,77.7347 C110.5154,77.4637 112.9604,76.7927 114.5964,73.8937 C116.2314,70.9947 125.3574,68.8517 126.4484,59.6437 C127.5384,50.4367 121.6894,45.9397 117.5364,44.1617 C113.3834,42.3867 105.5554,43.8537 102.7154,47.0557" id="Fill-66" fill="#BBBDBF"></path>
                    <path d="M51.5875,44.6114 C51.5875,44.6114 49.2705,42.5484 47.1315,39.4014 C45.8475,37.5134 45.5405,34.7294 46.4045,31.8974 C47.7805,38.2154 46.5655,36.3494 51.5875,44.6114" id="Fill-68" fill="#E5E6E7"></path>
                    <path d="M17.4429,77.4493 C21.4589,73.0033 14.5289,67.0213 4.4599,63.7343 C-2.5101,61.4603 16.1079,59.0213 11.5499,48.7373 C11.5499,48.7373 20.7259,57.7583 15.0259,63.7313 C11.9149,66.9933 19.7539,67.2343 21.2989,76.1453" id="Fill-70" fill="#E5E6E7"></path>
                    <path d="M39.6539,65.8282 C39.6539,65.8282 44.4389,74.6082 47.0699,74.5032 C49.7009,74.3962 63.2009,72.1502 67.0139,67.0212 C70.8269,61.8942 51.6399,76.6912 39.6539,65.8282" id="Fill-72" fill="#939597"></path>
                    <path d="M70.3219,33.1456 C69.7959,32.2096 68.7259,32.0436 67.7219,32.4816 C63.2489,34.4326 56.6339,33.9566 56.6339,33.9566 C54.6339,38.1686 61.6479,43.0556 61.2459,41.1266 C60.9829,39.8666 62.8279,37.5966 65.5339,36.5776 C67.4659,35.8486 68.2889,35.0486 69.0609,35.6376 C70.1469,36.9056 67.1089,39.2226 71.3959,37.8936 C72.7609,37.4696 70.8289,35.2906 70.3219,33.1456" id="Fill-74" fill="#E5E6E7"></path>
                    <g id="Group-78" transform="translate(3.000000, 72.328000)">
                        <mask id="mask-8" fill="white">
                            <use xlink:href="#path-7"></use>
                        </mask>
                        <g id="Clip-77"></g>
                        <path d="M38.8077,38.1418 C41.0407,37.7838 43.2637,37.5728 45.1217,36.8028 C43.2637,37.5738 41.0407,37.7838 38.8077,38.1418 M41.0937,8.4498 C40.1897,9.2208 39.1977,10.0438 38.0157,10.4938 C34.9237,12.9168 37.9777,11.8848 37.8077,12.3218 C40.4317,10.9608 47.0847,10.0888 47.6817,10.7748 C50.1177,13.5748 43.7277,16.5618 38.5477,14.7438 C37.5157,14.3818 36.9797,14.0148 36.8127,13.6588 C36.1887,14.3168 35.2307,15.2638 33.7567,16.9228 L31.9587,18.4758 C30.2227,20.1018 29.3657,22.7448 27.3427,24.0378 C27.3317,24.1768 27.3207,24.3158 27.3107,24.4548 C26.3747,25.6448 25.0387,26.3678 24.1347,27.5938 C23.5387,27.3648 0.2087,31.9618 0.2087,31.9618 C0.2087,31.9618 9.5147,43.2178 21.8867,45.4408 L21.8917,45.4258 C28.1457,46.9688 36.0517,47.9188 41.5637,45.6478 C47.5077,41.0338 50.9537,12.5318 50.9537,12.5318 L51.0757,11.6778 C51.0877,11.5928 51.0977,11.5058 51.1127,11.4238 C51.4827,9.2328 51.2207,8.4418 53.8517,7.0118 L55.1397,6.6848 C56.9507,5.1448 58.7427,3.0888 60.4647,1.4478 C60.5597,1.2118 59.9617,0.7908 59.8847,0.5078 C59.6257,-0.4432 43.0797,3.8758 41.0937,8.4498" id="Fill-76" fill="#939597" mask="url(#mask-8)"></path>
                    </g>
                </g>
            </g>
        </g>
    </g>
</svg>