<svg width="18" height="18" viewBox="0 0 18 18" fill="none" xmlns="http://www.w3.org/2000/svg">
<path d="M12.9375 2.875V1.125M5.0625 2.875V1.125M1.34375 5.5H16.6562M1.125 7.2885C1.125 5.43787 1.125 4.51213 1.5065 3.80513C1.85127 3.17437 2.38661 2.66874 3.036 2.3605C3.785 2 4.765 2 6.725 2H11.275C13.235 2 14.215 2 14.964 2.3605C15.6229 2.67725 16.1575 3.183 16.4935 3.80425C16.875 4.513 16.875 5.43875 16.875 7.28938V11.5874C16.875 13.438 16.875 14.3637 16.4935 15.0707C16.1487 15.7015 15.6134 16.2071 14.964 16.5154C14.215 16.875 13.235 16.875 11.275 16.875H6.725C4.765 16.875 3.785 16.875 3.036 16.5145C2.38674 16.2065 1.85142 15.7012 1.5065 15.0707C1.125 14.362 1.125 13.4362 1.125 11.5856V7.2885Z" stroke="#181817" stroke-width="1.5" stroke-linecap="round" stroke-linejoin="round"/>
</svg>
