<svg width="17" height="18" viewBox="0 0 17 18" fill="none" xmlns="http://www.w3.org/2000/svg">
<path d="M16.375 16.875L12.5749 13.0749M12.5749 13.0749C13.2249 12.4248 13.7405 11.6532 14.0923 10.8039C14.4441 9.95455 14.6252 9.04427 14.6252 8.125C14.6252 7.20572 14.4441 6.29545 14.0923 5.44614C13.7405 4.59684 13.2249 3.82515 12.5749 3.17512C11.9248 2.5251 11.1532 2.00947 10.3039 1.65767C9.45455 1.30588 8.54427 1.12482 7.625 1.12482C6.70572 1.12482 5.79545 1.30588 4.94614 1.65767C4.09684 2.00947 3.32515 2.5251 2.67512 3.17512C1.36233 4.48791 0.624817 6.26843 0.624817 8.125C0.624817 9.98156 1.36233 11.7621 2.67512 13.0749C3.98791 14.3877 5.76843 15.1252 7.625 15.1252C9.48156 15.1252 11.2621 14.3877 12.5749 13.0749Z" stroke="#181817" stroke-linecap="round" stroke-linejoin="round"/>
</svg>
