<svg width="20" height="21" viewBox="0 0 20 21" fill="none" xmlns="http://www.w3.org/2000/svg">
<path d="M5 4.5C4.20435 4.5 3.44129 4.81607 2.87868 5.37868C2.31607 5.94129 2 6.70435 2 7.5V13.5C2 14.2956 2.31607 15.0587 2.87868 15.6213C3.44129 16.1839 4.20435 16.5 5 16.5H10C10.7956 16.5 11.5587 16.1839 12.1213 15.6213C12.6839 15.0587 13 14.2956 13 13.5V13.179L16.037 15.276C16.2246 15.4055 16.4441 15.4812 16.6717 15.4949C16.8992 15.5087 17.1262 15.4599 17.328 15.354C17.5299 15.248 17.6989 15.0888 17.8168 14.8937C17.9347 14.6986 17.997 14.475 17.997 14.247V6.752C17.9969 6.52411 17.9344 6.3006 17.8164 6.10563C17.6985 5.91066 17.5294 5.75166 17.3276 5.64581C17.1258 5.53996 16.8989 5.49129 16.6714 5.50507C16.4439 5.51886 16.2246 5.59456 16.037 5.724L13 7.82V7.5C13 6.70435 12.6839 5.94129 12.1213 5.37868C11.5587 4.81607 10.7956 4.5 10 4.5H5ZM13 9.036L16.605 6.546C16.6425 6.52009 16.6865 6.50495 16.732 6.50221C16.7775 6.49947 16.8229 6.50924 16.8633 6.53045C16.9037 6.55167 16.9375 6.58353 16.961 6.62258C16.9846 6.66163 16.997 6.70639 16.997 6.752V14.247C16.997 14.2926 16.9846 14.3374 16.961 14.3764C16.9375 14.4155 16.9037 14.4473 16.8633 14.4685C16.8229 14.4898 16.7775 14.4995 16.732 14.4968C16.6865 14.4941 16.6425 14.4789 16.605 14.453L13 11.963V9.036ZM3 7.5C3 6.96957 3.21071 6.46086 3.58579 6.08579C3.96086 5.71071 4.46957 5.5 5 5.5H10C10.5304 5.5 11.0391 5.71071 11.4142 6.08579C11.7893 6.46086 12 6.96957 12 7.5V13.5C12 14.0304 11.7893 14.5391 11.4142 14.9142C11.0391 15.2893 10.5304 15.5 10 15.5H5C4.46957 15.5 3.96086 15.2893 3.58579 14.9142C3.21071 14.5391 3 14.0304 3 13.5V7.5Z" fill="#FF3939"/>
</svg>
